<svg width="300" height="300" viewBox="0 0 300 300" xmlns="http://www.w3.org/2000/svg">
  <defs>
    <linearGradient id="heartGradient" x1="0%" y1="0%" x2="100%" y2="100%">
      <stop offset="0%" style="stop-color:#ff6b9d;stop-opacity:1" />
      <stop offset="50%" style="stop-color:#ff8fab;stop-opacity:1" />
      <stop offset="100%" style="stop-color:#ffb3d1;stop-opacity:1" />
    </linearGradient>
    <filter id="glow">
      <feGaussianBlur stdDeviation="4" result="coloredBlur"/>
      <feMerge> 
        <feMergeNode in="coloredBlur"/>
        <feMergeNode in="SourceGraphic"/>
      </feMerge>
    </filter>
    <filter id="shadow">
      <feDropShadow dx="0" dy="3" stdDeviation="6" flood-color="#e91e63" flood-opacity="0.2"/>
    </filter>
  </defs>
  
  <!-- Coração esquerdo (maior) -->
  <path d="M120,100 
           C100,70 70,90 70,140 
           C70,190 120,230 120,230 
           C120,230 170,190 170,140 
           C170,90 140,70 120,100 Z" 
        fill="url(#heartGradient)" 
        filter="url(#glow) url(#shadow)"
        stroke="#e91e63"
        stroke-width="2"/>
  
  <!-- Coração direito (menor) -->
  <path d="M180,110 
           C165,85 140,100 140,145 
           C140,190 180,220 180,220 
           C180,220 220,190 220,145 
           C220,100 195,85 180,110 Z" 
        fill="url(#heartGradient)" 
        filter="url(#glow) url(#shadow)"
        stroke="#e91e63"
        stroke-width="2"/>
  
  <!-- Brilho no coração esquerdo -->
  <ellipse cx="110" cy="130" rx="20" ry="12" 
           fill="url(#gradientHighlight)" opacity="0.4">
    <defs>
      <linearGradient id="gradientHighlight" x1="0%" y1="0%" x2="100%" y2="100%">
        <stop offset="0%" style="stop-color:#ffffff;stop-opacity:0.7" />
        <stop offset="100%" style="stop-color:#ffffff;stop-opacity:0" />
      </linearGradient>
    </defs>
  </ellipse>
  
  <!-- Brilho no coração direito -->
  <ellipse cx="170" cy="140" rx="15" ry="10" 
           fill="url(#gradientHighlight)" opacity="0.4"/>
</svg>
